<?xml version="1.0" standalone="no"?>
<!DOCTYPE svg PUBLIC "-//W3C//DTD SVG 20010904//EN"
 "http://www.w3.org/TR/2001/REC-SVG-20010904/DTD/svg10.dtd">
<svg version="1.0" xmlns="http://www.w3.org/2000/svg"
 width="1150.000000pt" height="1150.000000pt" viewBox="0 0 1150.000000 1150.000000"
 preserveAspectRatio="xMidYMid meet">
<metadata>
Created by potrace 1.11, written by Peter Selinger 2001-2013
</metadata>
<g transform="translate(0.000000,1150.000000) scale(0.100000,-0.100000)"
fill="#000000" stroke="none">
<path d="M7430 11090 c-14 -26 -6 -51 23 -77 26 -24 151 -93 177 -98 95 -18
216 -23 248 -10 32 14 -37 33 -95 28 -72 -7 -103 8 -157 77 -69 89 -169 130
-196 80z"/>
<path d="M5487 10943 c-1 0 -48 -4 -104 -7 -104 -6 -150 -17 -168 -40 -16 -20
-94 -29 -101 -12 -7 19 -28 26 -44 16 -11 -7 -11 -11 -1 -24 12 -14 10 -16
-10 -17 -33 -1 -67 -7 -189 -30 -58 -12 -114 -22 -125 -24 -11 -2 -67 -15
-125 -30 -58 -14 -112 -28 -120 -30 -48 -12 -244 -72 -357 -111 -73 -25 -149
-46 -170 -48 -20 -2 -41 -10 -47 -18 -6 -9 -34 -25 -61 -38 -28 -12 -74 -33
-103 -46 -125 -57 -174 -74 -224 -80 -29 -3 -67 -10 -84 -15 -31 -10 -115 -86
-114 -103 1 -4 -45 -36 -102 -70 -57 -34 -110 -66 -118 -71 -8 -5 -5 4 8 19
30 39 28 47 -10 41 -73 -12 -112 -30 -293 -133 -38 -21 -75 -50 -82 -64 -15
-31 -7 -66 19 -74 26 -8 19 -24 -21 -45 -18 -9 -38 -24 -44 -31 -25 -30 -114
-97 -121 -91 -3 3 -6 2 -6 -4 0 -6 -40 -44 -89 -86 -142 -121 -332 -306 -484
-472 l-46 -50 5 32 c3 17 0 34 -5 37 -11 7 -127 -86 -178 -142 -76 -84 -27
-145 51 -64 20 20 46 51 57 67 12 17 33 39 48 50 14 11 -7 -18 -47 -65 -145
-167 -341 -442 -477 -667 -37 -62 -71 -113 -76 -113 -15 0 -67 -86 -146 -241
-43 -85 -91 -171 -107 -192 -26 -34 -28 -42 -22 -94 5 -47 2 -69 -16 -115 -12
-32 -26 -58 -30 -58 -5 0 -7 3 -7 8 3 19 -3 22 -21 12 -33 -17 -24 -47 13 -41
14 2 7 -22 -24 -80 -17 -32 -29 -64 -26 -72 3 -7 -5 -35 -18 -61 -13 -27 -29
-77 -36 -112 -10 -50 -16 -63 -28 -59 -21 6 -45 -10 -37 -24 4 -6 14 -11 23
-11 15 0 15 -18 -2 -80 -18 -63 -55 -228 -66 -289 -8 -41 -19 -76 -26 -78 -6
-2 -19 10 -29 26 -10 17 -21 31 -25 31 -9 0 -47 -122 -54 -175 -12 -87 -14
-102 -20 -165 -9 -104 -17 -183 -21 -215 -11 -94 -18 -329 -18 -615 -1 -286 1
-330 17 -368 24 -60 22 -88 -9 -108 -25 -17 -25 -19 -23 -122 4 -140 16 -231
60 -457 32 -162 55 -234 105 -335 68 -140 68 -137 39 -162 -23 -20 -23 -22 -8
-51 8 -16 18 -51 22 -76 l7 -46 13 40 c7 22 17 44 21 48 12 13 86 -97 140
-209 48 -98 88 -154 110 -154 5 0 10 8 10 18 1 20 29 -27 35 -58 7 -35 34 -75
65 -95 19 -12 41 -41 57 -75 131 -286 455 -760 728 -1066 103 -116 337 -349
440 -439 50 -44 92 -81 95 -85 14 -16 248 -196 340 -261 106 -76 256 -175 320
-212 389 -226 694 -366 1050 -482 137 -44 180 -59 409 -141 88 -31 288 -77
391 -89 25 -2 56 -7 70 -9 14 -3 48 -7 75 -11 28 -3 64 -8 80 -10 38 -5 109
-12 210 -22 105 -10 625 -10 740 0 113 9 179 16 230 23 22 2 63 7 90 10 28 3
97 12 155 21 58 8 114 16 125 18 11 1 47 7 80 13 33 6 74 14 90 17 17 2 41 7
55 10 14 3 39 8 55 10 35 6 118 27 195 49 89 26 160 17 160 -19 0 -8 9 -24 19
-34 19 -19 18 -20 -57 -49 -42 -16 -116 -42 -164 -57 -48 -15 -95 -36 -105
-47 -18 -20 -18 -20 27 -15 43 5 92 23 325 115 50 20 110 50 135 67 25 18 104
61 175 97 72 36 169 86 217 111 47 25 122 55 164 67 44 12 116 43 164 70 47
27 105 56 129 65 24 8 50 24 57 34 21 29 68 44 111 35 56 -12 79 -8 149 25 71
33 145 88 244 181 43 40 98 77 165 111 213 109 312 177 525 365 135 119 686
665 718 710 12 17 47 80 78 140 70 133 93 163 167 215 l58 41 -16 -38 c-23
-56 -104 -206 -123 -226 -8 -10 -12 -18 -9 -18 20 0 278 376 331 483 64 126
59 177 -15 177 -24 0 -39 5 -40 13 -4 43 18 94 81 187 21 30 51 82 68 115 42
80 53 93 93 106 67 23 99 66 122 167 l14 62 -57 -50 c-93 -80 -140 -138 -172
-208 -72 -160 -100 -212 -129 -237 -18 -14 -34 -24 -36 -21 -2 2 0 21 6 43 6
21 11 55 11 76 0 21 13 70 30 108 16 38 34 88 41 111 6 23 29 74 51 112 119
209 226 482 273 691 27 124 55 265 55 283 l0 24 -29 -24 c-16 -13 -34 -34 -41
-48 -9 -20 -84 -266 -93 -306 -2 -7 -16 -47 -32 -90 -26 -67 -30 -73 -33 -47
-3 25 8 80 34 178 2 11 9 47 15 80 5 33 15 77 20 99 6 21 12 68 14 105 2 36 6
86 9 111 3 25 8 84 11 131 3 59 13 109 30 154 16 43 27 97 30 153 7 108 10
125 40 239 14 51 25 95 25 98 0 3 -65 5 -144 5 l-143 0 -1 78 c0 42 -4 126 -7
186 -5 79 -4 115 6 132 10 19 10 35 -1 81 -18 77 -17 70 -26 165 -8 89 -9 198
-1 238 2 14 -1 39 -8 55 -15 38 -5 66 29 84 31 17 34 41 7 48 -30 8 -32 30 -5
48 37 24 29 59 -13 63 -44 4 -55 20 -43 64 6 20 17 41 25 48 23 19 18 47 -14
69 -33 24 -33 38 -4 116 19 49 20 70 7 170 -8 68 -10 74 -29 141 -23 83 -123
392 -139 434 -8 19 -34 85 -57 145 -54 138 -101 234 -197 404 -83 147 -130
211 -133 176 -2 -44 3 -96 16 -144 7 -28 10 -49 5 -46 -4 3 -25 -1 -46 -9 -35
-12 -70 -14 -79 -4 -2 2 -23 44 -47 93 -57 118 -140 269 -150 273 -4 2 -8 9
-8 15 0 7 -14 32 -30 56 -17 24 -30 52 -30 61 0 51 68 11 125 -73 26 -39 36
-47 41 -34 18 48 -53 137 -136 172 -52 22 -106 60 -113 79 -4 9 11 5 37 -10
44 -25 79 -25 104 0 13 12 7 21 -40 68 -46 45 -60 69 -98 163 -81 206 -119
265 -216 342 -50 40 -218 152 -222 148 -5 -5 38 -95 45 -94 24 4 33 -4 33 -29
0 -51 -5 -50 -92 27 -51 44 -74 89 -77 148 -1 7 -20 22 -43 34 -24 12 -48 29
-54 38 -17 23 -6 43 20 35 11 -4 32 -8 46 -8 22 -1 25 3 28 46 4 60 -23 93
-68 83 -16 -4 -39 -4 -49 0 -18 5 -20 13 -17 72 2 46 -2 81 -15 117 -11 28
-19 53 -19 56 -1 3 -10 -15 -21 -39 -12 -24 -32 -56 -45 -70 -29 -31 -30 -47
-4 -86 21 -32 26 -80 10 -90 -6 -3 -46 8 -91 26 -70 28 -85 39 -123 88 -57 73
-68 83 -216 188 -161 115 -241 163 -284 170 -57 9 -59 -29 -3 -62 18 -10 66
-53 107 -95 41 -42 152 -138 246 -212 187 -148 361 -309 375 -347 11 -29 -5
-53 -29 -44 -9 4 -42 23 -73 44 -74 50 -108 59 -116 31 -4 -19 -13 -14 -94 46
-49 37 -85 68 -79 70 19 7 10 50 -15 81 -24 28 -74 52 -139 66 l-29 6 22 -36
21 -36 -47 33 c-46 31 -47 32 -23 39 14 4 20 7 13 8 -6 1 -23 21 -37 45 -27
47 -79 79 -148 91 -42 8 -46 1 -22 -33 20 -29 16 -28 -57 15 -35 20 -115 60
-178 90 -160 74 -155 71 -193 109 -39 37 -84 59 -93 44 -3 -5 -26 -2 -53 9
-42 16 -54 29 -79 79 0 2 -16 6 -35 9 -22 3 -30 1 -23 -5 6 -6 21 -12 34 -14
20 -2 22 -5 10 -14 -11 -9 -44 -1 -149 38 -74 27 -139 57 -144 65 -5 10 -11
12 -15 5 -5 -8 -32 -3 -86 14 -78 24 -244 68 -375 98 -96 22 -212 45 -312 61
-18 3 -44 7 -58 10 -14 2 -50 7 -80 10 -30 3 -62 8 -70 10 -8 2 -46 6 -85 10
-38 3 -86 8 -105 10 -19 2 -89 7 -155 10 -123 6 -194 10 -372 21 -100 6 -263
11 -266 7z m-2537 -907 c0 -2 -22 -20 -50 -40 -63 -45 -66 -39 -4 9 46 34 54
39 54 31z m6286 -341 c9 -36 2 -39 -30 -12 -28 24 -26 37 5 37 12 0 21 -10 25
-25z m175 -17 c-5 -13 -15 -23 -22 -23 -8 0 -15 10 -17 23 -3 18 1 22 22 22
22 0 24 -3 17 -22z m244 -24 c9 -9 13 -19 10 -22 -3 -3 -15 4 -27 16 -13 12
-17 22 -11 22 6 0 19 -7 28 -16z m-243 -116 c24 -29 50 -62 58 -72 14 -18 14
-19 -10 -6 -37 19 -119 89 -131 111 -5 11 -7 24 -4 29 10 16 39 -5 87 -62z
m182 -44 c61 -59 199 -275 184 -289 -11 -11 -76 47 -143 126 -80 95 -99 126
-109 176 -7 28 -5 31 13 26 11 -3 36 -20 55 -39z m409 -625 c-6 -21 -6 -21
-26 -1 -24 24 -15 47 13 32 12 -6 16 -17 13 -31z m-4139 -223 c111 -26 205
-76 285 -150 54 -51 132 -160 146 -204 3 -13 12 -21 18 -18 75 32 131 41 247
41 99 0 141 -5 202 -22 174 -50 286 -121 396 -247 36 -42 90 -157 106 -225 8
-35 16 -65 19 -67 2 -2 30 -7 63 -10 136 -14 294 -88 399 -185 107 -101 154
-216 161 -396 l4 -113 40 -52 c102 -135 140 -285 106 -414 -58 -217 -324 -387
-531 -339 -103 24 -168 80 -224 195 -148 301 -486 621 -827 784 -174 83 -364
149 -495 171 -19 3 -41 8 -49 10 -8 2 -37 7 -65 11 -27 3 -59 8 -69 10 -35 6
-220 17 -291 16 -108 -1 -269 -13 -277 -21 -4 -4 7 -6 24 -6 105 2 363 -45
528 -98 l105 -33 -2 -50 c0 -27 -4 -121 -8 -209 -4 -88 -9 -205 -11 -260 -5
-150 -5 -676 0 -795 6 -138 16 -286 21 -330 2 -19 7 -62 10 -95 3 -33 8 -69
10 -80 2 -11 4 -30 4 -42 1 -13 5 -23 10 -23 5 0 9 64 11 143 2 146 3 171 14
342 10 134 13 176 20 232 3 27 8 68 10 93 5 39 16 132 32 260 2 19 9 60 14 90
5 30 12 72 16 94 3 21 8 48 10 60 2 11 8 46 14 76 16 95 20 113 35 180 8 36
17 74 19 85 15 89 20 106 27 111 15 9 203 -90 352 -186 l68 -44 -6 -169 c-13
-314 -14 -361 -14 -662 -1 -347 7 -605 24 -735 2 -19 7 -60 10 -90 6 -58 15
-113 18 -116 1 -2 3 63 3 144 1 133 12 421 18 497 2 17 7 77 11 135 4 58 8
112 10 120 2 8 6 44 9 80 6 57 20 162 31 240 2 14 6 43 10 65 3 23 7 50 9 62
3 12 8 43 12 70 5 26 8 50 9 53 1 3 7 38 15 78 7 39 17 72 22 72 22 0 214
-211 273 -301 108 -161 123 -217 102 -364 -33 -226 -41 -370 -41 -710 -1 -357
14 -604 49 -830 3 -16 7 -48 10 -70 9 -61 12 -74 30 -154 22 -96 16 -147 -25
-205 -67 -93 -240 -205 -415 -269 -117 -42 -272 -87 -345 -100 -14 -3 -63 -12
-110 -20 -326 -60 -724 -76 -1020 -41 -45 5 -122 18 -170 29 -14 3 -38 8 -55
11 -16 3 -33 8 -37 12 -4 4 40 3 99 -3 107 -12 464 -12 538 -2 22 3 67 9 100
12 33 3 71 8 85 10 14 2 41 7 60 10 19 3 46 8 60 10 14 3 34 7 45 9 234 45
522 152 711 266 133 80 305 212 292 225 -3 3 -31 13 -62 21 l-56 15 -76 -52
c-135 -91 -361 -196 -572 -265 -90 -30 -332 -92 -382 -99 -19 -3 -46 -7 -60
-10 -24 -5 -54 -9 -135 -20 -69 -10 -318 -13 -365 -5 -49 8 -50 8 75 15 99 5
197 15 255 25 30 5 70 12 88 15 339 57 673 193 919 374 54 40 87 75 65 69 -4
-1 -43 4 -87 11 -44 7 -101 16 -127 21 -50 8 -449 6 -483 -3 -11 -2 -45 -8
-77 -11 -47 -6 -180 -30 -274 -51 -231 -51 -576 -193 -769 -317 -33 -21 -75
-45 -93 -53 -58 -27 -106 1 -123 72 -43 182 -34 202 141 318 162 108 366 205
546 261 49 15 91 28 94 29 3 1 46 11 95 22 50 12 104 24 120 26 17 3 59 10 95
16 124 19 236 26 440 25 207 0 314 -7 435 -28 17 -3 50 -7 75 -10 l45 -6 -60
30 c-150 73 -390 136 -595 155 -119 11 -384 6 -467 -9 -10 -2 -40 -7 -68 -10
-102 -15 -119 -18 -237 -47 -116 -28 -252 -70 -293 -89 -11 -5 -44 -18 -72
-30 -70 -26 -186 -85 -250 -126 -69 -44 -97 -48 -128 -21 -19 17 -28 38 -36
87 -5 36 -12 79 -15 95 -3 17 -7 46 -10 65 -2 19 -8 69 -14 110 -19 150 -40
354 -45 445 -26 442 -22 982 10 1385 2 36 7 102 11 148 3 46 7 91 9 101 3 16
15 153 18 211 2 18 -2 24 -13 22 -8 -2 -55 -5 -104 -6 -291 -8 -470 175 -470
479 0 129 23 192 97 267 52 53 155 112 215 124 29 6 30 8 34 68 14 225 273
398 581 388 78 -3 162 -31 201 -67 22 -20 25 -30 19 -52 -4 -16 -7 -68 -6
-118 0 -100 18 -157 75 -251 34 -57 50 -69 42 -31 -15 66 -10 192 12 276 49
194 166 300 379 344 30 7 276 1 309 -7z m4636 -311 c-15 -62 -11 -72 19 -55
29 15 54 -1 73 -47 44 -103 71 -182 77 -225 9 -51 -4 -67 -16 -21 -9 39 -62
139 -80 155 -12 10 -17 9 -28 -5 -11 -15 -8 -32 16 -103 29 -86 37 -144 19
-144 -14 0 -50 41 -50 57 0 17 -97 309 -114 342 -20 39 -13 69 25 104 33 31
35 32 53 15 18 -16 18 -21 6 -73z m-9356 -429 c-6 -16 -24 -23 -24 -8 0 10 22
33 27 28 2 -2 1 -11 -3 -20z m9548 -201 c9 -33 17 -87 17 -120 l0 -60 -43 110
c-32 80 -41 114 -33 123 21 26 42 7 59 -53z m86 -370 c-3 -3 -9 2 -12 12 -6
14 -5 15 5 6 7 -7 10 -15 7 -18z m164 -91 c-5 -25 -6 -26 -25 -18 -13 5 -14 9
-4 25 15 23 33 19 29 -7z m-10215 -764 c-13 -66 -37 -69 -37 -4 0 25 5 55 11
66 11 20 13 20 24 5 9 -13 10 -30 2 -67z m-40 -402 c-10 -119 -41 -142 -38
-28 1 54 21 110 39 110 3 0 2 -37 -1 -82z m-17 -405 c0 -16 -22 -17 -38 -1 -9
9 -7 14 6 24 18 13 32 3 32 -23z m7 -111 c2 -9 5 -62 7 -117 2 -55 6 -134 10
-175 l6 -75 -26 95 c-27 96 -38 244 -21 284 8 21 19 15 24 -12z m10428 -178
c-1 -14 -7 -30 -12 -35 -5 -5 -7 4 -5 26 2 19 8 35 12 35 5 0 7 -12 5 -26z
m-27 -221 c9 -19 9 -21 -3 -71 -11 -45 -25 -22 -25 41 0 48 12 61 28 30z
m-194 -702 c-20 -22 -29 -5 -14 26 12 26 13 27 20 8 5 -13 3 -25 -6 -34z
m-10140 -53 c21 -30 7 -46 -15 -17 -10 13 -19 27 -19 32 0 15 19 6 34 -15z
m126 -70 c0 -7 3 -24 6 -38 4 -18 1 -16 -10 9 -19 39 -19 41 -6 41 6 0 10 -6
10 -12z m10150 -208 c-5 -16 -6 -30 -3 -30 3 0 0 -7 -7 -15 -7 -8 -10 -15 -6
-15 4 0 -3 -18 -14 -40 -11 -22 -22 -40 -24 -40 -2 0 2 21 10 48 8 26 19 64
25 85 5 20 14 37 19 37 5 0 5 -13 0 -30z m-10056 -265 c3 -9 0 -15 -9 -15 -9
0 -12 6 -9 15 4 8 7 15 9 15 2 0 5 -7 9 -15z m9732 -763 c-27 -51 -253 -321
-331 -394 -29 -28 -65 -37 -65 -17 0 18 22 53 42 68 13 8 18 21 15 35 -4 17 9
32 64 76 71 56 103 87 219 220 44 50 66 68 68 57 2 -8 -4 -29 -12 -45z m109
-32 c3 -6 -1 -7 -9 -4 -18 7 -21 14 -7 14 6 0 13 -4 16 -10z m-584 -511 c-56
-57 -66 -57 -23 -1 33 45 66 74 70 61 2 -5 -19 -32 -47 -60z m-261 -348 c0 -6
-4 -13 -10 -16 -5 -3 -10 1 -10 9 0 9 5 16 10 16 6 0 10 -4 10 -9z m-2405
-1535 c18 -13 17 -14 -18 -14 -35 0 -45 7 -30 21 10 11 28 8 48 -7z"/>
<path d="M5917 5370 c3 -11 7 -20 9 -20 2 0 4 9 4 20 0 11 -4 20 -9 20 -5 0
-7 -9 -4 -20z"/>
<path d="M10510 8220 c0 -5 5 -10 10 -10 6 0 10 5 10 10 0 6 -4 10 -10 10 -5
0 -10 -4 -10 -10z"/>
<path d="M4788 10905 c-2 -2 -28 -6 -58 -9 -30 -3 -64 -8 -75 -10 -11 -2 -49
-7 -85 -11 -209 -22 -364 -56 -395 -86 -20 -20 -20 -20 22 -59 37 -35 44 -38
70 -30 215 70 345 104 448 116 126 16 280 64 255 79 -13 8 -175 17 -182 10z"/>
<path d="M8020 10860 c-7 -5 -15 -16 -16 -25 -1 -9 -11 -26 -21 -37 -17 -19
-17 -21 15 -49 28 -25 40 -29 92 -29 33 0 60 4 60 8 0 5 -14 30 -31 55 -37 56
-79 89 -99 77z"/>
<path d="M7220 10775 c0 -18 21 -28 46 -23 17 3 17 4 0 21 -22 21 -46 22 -46
2z"/>
<path d="M7375 10730 c3 -5 11 -10 16 -10 6 0 7 5 4 10 -3 6 -11 10 -16 10 -6
0 -7 -4 -4 -10z"/>
<path d="M9140 10707 c0 -28 19 -47 75 -75 22 -11 67 -45 99 -76 59 -57 113
-93 124 -82 19 19 -67 111 -187 201 -82 60 -111 69 -111 32z"/>
<path d="M3725 10690 c-16 -4 -57 -18 -90 -32 -33 -14 -76 -31 -96 -37 -33
-11 -94 -61 -73 -61 5 0 47 15 93 34 74 29 108 35 156 26 27 -6 43 2 53 25 21
46 10 57 -43 45z"/>
<path d="M8278 10662 c-10 -36 4 -48 40 -37 l32 11 -23 22 c-28 27 -43 28 -49
4z"/>
<path d="M3861 10647 c-16 -16 -14 -24 9 -30 13 -3 24 1 30 14 6 10 9 19 8 20
-24 6 -38 5 -47 -4z"/>
<path d="M8240 10532 c0 -10 22 -32 32 -32 4 0 5 6 2 14 -6 16 -34 30 -34 18z"/>
<path d="M3476 10508 c-43 -9 -99 -45 -91 -58 8 -14 90 15 114 39 13 13 21 24
19 25 -1 2 -20 -1 -42 -6z"/>
<path d="M9490 10416 c-17 -21 16 -66 166 -223 158 -167 270 -297 340 -395 30
-42 67 -87 83 -100 15 -13 44 -49 64 -81 20 -31 50 -63 68 -72 l31 -17 -7 34
c-4 18 -21 51 -36 73 -16 22 -43 60 -61 85 -31 44 -132 171 -175 220 -38 44
-182 223 -246 305 -126 164 -191 213 -227 171z"/>
<path d="M2977 10370 c-31 -17 -61 -29 -65 -27 -4 3 -32 -20 -62 -50 l-55 -54
100 50 c102 51 183 110 155 111 -8 0 -41 -14 -73 -30z"/>
<path d="M8639 10252 c7 -12 15 -22 19 -23 4 0 15 -2 24 -4 15 -3 16 0 8 16
-6 10 -15 19 -20 19 -4 0 -16 3 -25 7 -15 5 -16 3 -6 -15z"/>
<path d="M2564 10123 c-13 -14 -22 -28 -20 -30 8 -8 45 17 56 37 16 30 -6 26
-36 -7z"/>
<path d="M2402 10020 c-22 -18 -22 -19 -3 -25 22 -7 50 5 71 29 11 14 9 16
-16 16 -16 -1 -39 -9 -52 -20z"/>
<path d="M9480 9935 c0 -8 7 -15 15 -15 8 0 15 7 15 15 0 8 -7 15 -15 15 -8 0
-15 -7 -15 -15z"/>
<path d="M2220 9870 c-8 -5 -12 -12 -9 -15 4 -3 12 1 19 10 14 17 11 19 -10 5z"/>
<path d="M2065 9781 c-86 -39 -490 -446 -701 -706 -130 -159 -353 -477 -435
-618 -19 -32 -46 -80 -61 -105 -34 -58 -108 -210 -155 -317 -20 -44 -39 -84
-43 -90 -4 -5 -10 -19 -13 -30 -3 -11 -14 -48 -25 -83 -11 -34 -16 -59 -11
-56 5 3 42 71 83 152 70 141 96 189 174 332 160 291 330 553 459 707 32 38
100 110 153 161 322 316 614 611 625 633 23 42 10 48 -50 20z"/>
<path d="M2314 9666 c-10 -8 -17 -17 -14 -19 3 -3 14 1 24 9 11 7 17 16 15 19
-3 3 -14 -2 -25 -9z"/>
<path d="M2137 9502 c-28 -19 -56 -51 -57 -65 0 -14 50 25 71 54 24 34 23 35
-14 11z"/>
<path d="M10264 9454 c3 -9 6 -19 6 -22 0 -9 20 21 20 31 0 4 -7 7 -16 7 -11
0 -14 -5 -10 -16z"/>
<path d="M10376 9299 c-8 -12 -12 -28 -9 -35 7 -19 93 -78 93 -64 0 5 9 10 19
10 14 0 42 -32 91 -105 40 -58 76 -108 81 -111 26 -16 -16 122 -62 203 -32 56
-90 112 -117 114 -9 1 -31 3 -49 5 -24 3 -36 -2 -47 -17z"/>
<path d="M10271 8728 c-15 -41 -13 -69 4 -92 15 -20 65 -56 77 -56 15 0 -5 86
-28 127 -32 56 -40 59 -53 21z"/>
<path d="M10767 8514 c-3 -4 3 -24 14 -46 24 -47 34 -45 18 3 -14 39 -23 52
-32 43z"/>
<path d="M10830 8368 c0 -44 53 -168 67 -155 4 5 -53 156 -63 166 -2 2 -4 -2
-4 -11z"/>
<path d="M10960 8017 c0 -26 20 -128 44 -225 24 -97 49 -202 55 -232 6 -30 14
-66 16 -80 19 -90 32 -228 33 -350 2 -152 15 -204 59 -243 20 -17 21 -17 27 0
31 79 43 302 21 393 -3 14 -8 41 -11 60 -3 19 -14 73 -25 120 -11 47 -23 96
-25 110 -18 96 -86 293 -135 390 -56 110 -59 113 -59 57z"/>
<path d="M522 7558 c-10 -29 -22 -73 -25 -98 l-6 -45 24 50 c28 59 46 133 35
140 -5 3 -17 -18 -28 -47z"/>
<path d="M372 7059 c-17 -27 -20 -69 -5 -69 23 0 43 25 43 55 0 46 -14 51 -38
14z"/>
<path d="M720 6864 c0 -8 5 -12 10 -9 6 4 8 11 5 16 -9 14 -15 11 -15 -7z"/>
<path d="M121 6833 c-11 -42 -20 -84 -26 -126 -2 -15 -7 -47 -10 -70 -4 -23
-9 -45 -11 -49 -3 -5 -1 -8 4 -8 9 0 37 123 47 210 3 25 8 53 11 63 3 9 3 17
0 17 -3 0 -10 -17 -15 -37z"/>
<path d="M315 6850 c-10 -16 7 -31 23 -21 10 6 10 10 -2 20 -10 9 -16 9 -21 1z"/>
<path d="M11169 6833 c-12 -33 -17 -90 -24 -303 -2 -91 -7 -174 -9 -185 -2
-11 -7 -51 -11 -88 -3 -37 -8 -78 -11 -90 -11 -56 -13 -148 -4 -172 13 -34 40
-30 59 10 8 17 18 75 23 130 4 55 10 109 12 121 4 21 13 114 21 224 2 30 7 96
11 145 9 116 8 158 -6 200 -14 44 -46 48 -61 8z"/>
<path d="M330 6640 c0 -5 5 -10 10 -10 6 0 10 5 10 10 0 6 -4 10 -10 10 -5 0
-10 -4 -10 -10z"/>
<path d="M11050 5999 c0 -5 5 -7 10 -4 6 3 10 8 10 11 0 2 -4 4 -10 4 -5 0
-10 -5 -10 -11z"/>
<path d="M11467 5730 c3 -11 9 -17 14 -14 14 8 10 34 -5 34 -9 0 -12 -7 -9
-20z"/>
<path d="M11362 5366 c-10 -23 -13 -49 -27 -236 -3 -41 -8 -96 -11 -122 -3
-27 -3 -48 -1 -48 4 0 34 90 41 125 3 11 11 54 20 95 23 115 25 144 10 179
-16 37 -18 38 -32 7z"/>
<path d="M7 4940 c-3 -10 1 -27 7 -36 11 -15 13 -15 19 -1 7 18 -2 57 -13 57
-4 0 -10 -9 -13 -20z"/>
<path d="M11417 4798 c-8 -35 -20 -99 -26 -143 -6 -44 -14 -93 -16 -110 -9
-53 12 -5 28 65 16 66 21 97 33 185 3 28 8 53 11 58 2 4 0 7 -5 7 -5 0 -16
-28 -25 -62z"/>
<path d="M65 4590 c3 -5 8 -10 11 -10 2 0 4 5 4 10 0 6 -5 10 -11 10 -5 0 -7
-4 -4 -10z"/>
<path d="M105 4415 c-3 -16 -8 -35 -10 -41 -1 -5 3 -21 10 -33 l12 -24 11 32
c9 25 8 40 -2 64 l-13 32 -8 -30z"/>
<path d="M11327 4343 c-4 -3 -7 -18 -6 -32 1 -26 1 -25 10 3 9 31 7 41 -4 29z"/>
<path d="M11167 4153 c-10 -9 -9 -23 2 -23 5 0 11 7 15 15 5 15 -5 20 -17 8z"/>
<path d="M800 3847 c0 -3 63 -149 97 -227 l16 -35 7 30 c9 42 -16 122 -53 172
-27 35 -67 71 -67 60z"/>
<path d="M11070 3579 c0 -5 5 -7 10 -4 6 3 10 8 10 11 0 2 -4 4 -10 4 -5 0
-10 -5 -10 -11z"/>
<path d="M920 3552 c0 -21 37 -66 61 -74 9 -3 9 -9 0 -26 -14 -26 -7 -58 19
-87 10 -11 22 -32 25 -47 4 -16 13 -28 21 -28 45 0 -28 171 -118 275 -4 5 -8
0 -8 -13z"/>
<path d="M11000 3450 c0 -5 7 -10 16 -10 8 0 12 5 9 10 -3 6 -10 10 -16 10 -5
0 -9 -4 -9 -10z"/>
<path d="M1130 3113 c0 -12 24 -76 33 -90 5 -7 17 -13 27 -13 18 0 19 6 5 45
-7 21 -65 73 -65 58z"/>
<path d="M1325 2745 c28 -69 94 -173 203 -319 58 -78 108 -143 111 -146 4 -3
28 -32 56 -65 27 -33 52 -62 55 -65 3 -3 24 -27 45 -54 39 -48 114 -110 122
-102 4 4 -17 46 -28 56 -3 3 -12 14 -20 26 -8 12 -54 65 -104 119 -94 102
-165 191 -165 206 0 15 -200 284 -255 344 l-36 40 16 -40z"/>
<path d="M2086 1812 c-8 -13 23 -52 40 -52 20 0 18 24 -4 43 -21 19 -28 21
-36 9z"/>
<path d="M2287 1643 c10 -29 26 -45 57 -58 63 -27 76 11 19 50 -45 30 -86 34
-76 8z"/>
<path d="M9476 1575 c-3 -8 -1 -15 4 -15 13 0 22 18 11 24 -5 3 -11 -1 -15 -9z"/>
<path d="M9010 1170 c0 -5 5 -10 10 -10 6 0 10 5 10 10 0 6 -4 10 -10 10 -5 0
-10 -4 -10 -10z"/>
<path d="M8865 1080 c-3 -5 -1 -10 4 -10 6 0 11 5 11 10 0 6 -2 10 -4 10 -3 0
-8 -4 -11 -10z"/>
<path d="M8780 1020 c0 -5 4 -10 9 -10 6 0 13 5 16 10 3 6 -1 10 -9 10 -9 0
-16 -4 -16 -10z"/>
<path d="M7663 615 c-18 -8 -33 -19 -33 -24 0 -13 60 -7 88 8 53 28 4 42 -55
16z"/>
<path d="M4170 587 c44 -23 110 -47 148 -53 36 -6 37 -6 19 14 -10 11 -33 23
-50 26 -18 3 -43 9 -57 12 -14 3 -38 7 -55 10 l-30 5 25 -14z"/>
<path d="M7152 432 c-21 -14 21 -45 49 -37 l23 8 -23 18 c-26 21 -31 22 -49
11z"/>
<path d="M6240 414 c0 -8 5 -12 10 -9 6 4 8 11 5 16 -9 14 -15 11 -15 -7z"/>
<path d="M5994 391 c3 -5 15 -7 26 -4 28 7 25 13 -6 13 -14 0 -23 -4 -20 -9z"/>
</g>
</svg>
